<svg xmlns="http://www.w3.org/2000/svg" viewBox="0 0 384.793 346.9"><defs><style>.cls-1{fill:#fff;}</style></defs><title>Recurso 14</title><g id="Capa_2" data-name="Capa 2"><g id="Capa_1-2" data-name="Capa 1"><path class="cls-1" d="M97.31,199.3V176h59.733q14.382,0,19.176-2.875a13.486,13.486,0,0,0,6.9-12.37q0-9.492-8.054-13.9-4.6-2.492-14.67-2.493H136.142q-22.245,0-32.024-8.053a34.748,34.748,0,0,1-9.588-12.8,39.812,39.812,0,0,1-3.451-16.443,42.755,42.755,0,0,1,8.053-25.216Q106.994,70.824,124.348,69q5.849-.576,17.45-.575h64.911v23.3H148.126q-13.136.1-17.45,1.151-8.823,2.207-8.82,13.327,0,9.4,7.383,12.656,4.983,2.208,16.491,2.206h21q16.107,0,24.066,2.78,13.9,4.7,19.08,16.491a49.492,49.492,0,0,1,4.218,20.327,42.064,42.064,0,0,1-5.465,21.381q-7.671,13.425-23.106,16.012-7.479,1.246-22.437,1.246Z"/><path class="cls-1" d="M216.573,237.511v45.735H188.768V152.37h65.294q17.835,0,25.6,2.493,12.848,4.314,20.327,17.93a45.047,45.047,0,0,1,5.56,22.148,49.468,49.468,0,0,1-3.643,18.888,38.749,38.749,0,0,1-10.163,14.67,32.662,32.662,0,0,1-12.369,7.046q-6.615,1.967-18.025,1.966Zm0-23.3h37.968q10.162,0,14.287-3.259,6.134-4.89,6.136-16.971,0-13.232-9.3-16.971-3.358-1.341-10.547-1.342H216.573Z"/><path class="cls-1" d="M2.644,89.859a57.624,57.624,0,0,1-1.6-7.26Q.437,78.915.2,75.161A82.853,82.853,0,0,1,.545,60.025,75.36,75.36,0,0,1,3.931,44.941a67.811,67.811,0,0,1,6.9-14.257A62.449,62.449,0,0,1,21.313,18.411a64.291,64.291,0,0,1,13.3-9.23C44.164,4.13,54.643,1.655,64.992.613A135.883,135.883,0,0,1,80.449.02c5.119.12,10.2.486,15.243,1.031a203.021,203.021,0,0,1,29.651,5.723,270,270,0,0,1,28.4,9.458c9.252,3.664,18.283,7.8,27.112,12.275A413.865,413.865,0,0,1,231.5,59.078c8.082,5.638,15.914,11.551,23.658,17.557,7.744,6.022,15.384,12.187,22.826,18.586q11.136,9.631,21.687,19.9c6.957,6.916,13.753,13.989,20.207,21.363a405.483,405.483,0,0,1,35.411,46.763c-5.657-7.97-11.4-15.873-17.6-23.416-6.1-7.623-12.575-14.929-19.253-22.028s-13.706-13.861-20.863-20.461q-10.828-9.8-22.239-18.918c-7.613-6.064-15.413-11.889-23.318-17.574S236.106,69.6,227.951,64.358a377.984,377.984,0,0,0-50.917-27.82A285.437,285.437,0,0,0,122.527,18.3a206.479,206.479,0,0,0-28.069-4.27c-4.69-.327-9.372-.486-14.027-.421a121.694,121.694,0,0,0-13.794,1.048A91.72,91.72,0,0,0,53.368,17.4c-2.175.57-4.273,1.311-6.381,2.01-2.073.773-4.133,1.574-6.133,2.478-1.987.924-3.958,1.889-5.85,2.975A65.087,65.087,0,0,0,29.5,28.4a55.261,55.261,0,0,0-9.654,8.927A57.726,57.726,0,0,0,12.31,48.506a72.246,72.246,0,0,0-5.282,12.87A95.109,95.109,0,0,0,3.839,75.307,101.534,101.534,0,0,0,2.644,89.859Z"/><path class="cls-1" d="M382.15,257.041a57.446,57.446,0,0,1,1.6,7.26q.606,3.684.845,7.438a82.855,82.855,0,0,1-.347,15.136,75.36,75.36,0,0,1-3.386,15.084,67.714,67.714,0,0,1-6.9,14.257,62.449,62.449,0,0,1-10.481,12.273,64.248,64.248,0,0,1-13.3,9.229c-9.554,5.051-20.033,7.527-30.382,8.569a135.883,135.883,0,0,1-15.457.593c-5.119-.12-10.2-.486-15.243-1.031a203.312,203.312,0,0,1-29.651-5.723,270,270,0,0,1-28.4-9.458c-9.251-3.664-18.283-7.8-27.112-12.275a413.941,413.941,0,0,1-50.647-30.571c-8.082-5.638-15.914-11.551-23.658-17.557-7.744-6.022-15.383-12.187-22.826-18.586q-11.136-9.631-21.687-19.9c-6.957-6.917-13.753-13.989-20.207-21.363A405.6,405.6,0,0,1,29.5,163.654c5.657,7.97,11.4,15.873,17.6,23.416C53.2,194.693,59.679,202,66.357,209.1c6.693,7.09,13.707,13.861,20.863,20.461q10.828,9.8,22.239,18.918c7.613,6.064,15.413,11.889,23.319,17.574s15.909,11.251,24.064,16.491a377.984,377.984,0,0,0,50.917,27.82A285.461,285.461,0,0,0,262.266,328.6a206.635,206.635,0,0,0,28.069,4.27c4.69.327,9.373.486,14.027.421a121.676,121.676,0,0,0,13.794-1.048,91.868,91.868,0,0,0,13.27-2.743c2.174-.57,4.272-1.311,6.38-2.01,2.073-.774,4.133-1.574,6.133-2.478,1.988-.924,3.958-1.889,5.85-2.975a65.337,65.337,0,0,0,5.5-3.539,55.225,55.225,0,0,0,9.654-8.927,57.726,57.726,0,0,0,7.536-11.178,72.354,72.354,0,0,0,5.283-12.87,95.368,95.368,0,0,0,3.189-13.931A101.678,101.678,0,0,0,382.15,257.041Z"/></g></g></svg>