<svg xmlns="http://www.w3.org/2000/svg" viewBox="0 0 536.001 106.504"><defs><style>.cls-1{fill:#1d1d1b;}</style></defs><title>Recurso 8</title><g id="Capa_2" data-name="Capa 2"><g id="Capa_1-2" data-name="Capa 1"><path class="cls-1" d="M29.744,61.09V54.027h18.11q4.361,0,5.814-.872a4.089,4.089,0,0,0,2.093-3.75,4.471,4.471,0,0,0-2.442-4.215,9.806,9.806,0,0,0-4.448-.756H41.517q-6.744,0-9.708-2.442a10.525,10.525,0,0,1-2.907-3.88,12.069,12.069,0,0,1-1.047-4.986A12.962,12.962,0,0,1,30.3,25.481q2.383-3.342,7.645-3.9,1.771-.174,5.291-.174H62.911v7.063H45.151a28.4,28.4,0,0,0-5.29.349q-2.676.669-2.675,4.041A3.788,3.788,0,0,0,39.424,36.7a13.406,13.406,0,0,0,5,.669H50.79a23.62,23.62,0,0,1,7.3.842,9.115,9.115,0,0,1,5.784,5,15,15,0,0,1,1.28,6.162,12.752,12.752,0,0,1-1.657,6.483,9.491,9.491,0,0,1-7.005,4.854,44.944,44.944,0,0,1-6.8.378Z"/><path class="cls-1" d="M65.9,72.674V86.539h-8.43V46.862h19.8a28.1,28.1,0,0,1,7.761.756,10.965,10.965,0,0,1,6.163,5.435,13.663,13.663,0,0,1,1.685,6.715,15,15,0,0,1-1.1,5.727,11.762,11.762,0,0,1-3.081,4.447,9.927,9.927,0,0,1-3.75,2.137,19.949,19.949,0,0,1-5.465.6Zm0-7.063H77.413q3.081,0,4.331-.989,1.862-1.482,1.861-5.145,0-4.011-2.82-5.146a9.27,9.27,0,0,0-3.2-.406H65.9Z"/><path class="cls-1" d="M1.043,27.909a23.368,23.368,0,0,1-.95-9.11,22.959,22.959,0,0,1,.937-4.68A21.081,21.081,0,0,1,3.088,9.645a19.583,19.583,0,0,1,7.347-6.807A24.6,24.6,0,0,1,19.868.166,52.638,52.638,0,0,1,38.382,2.157a87.76,87.76,0,0,1,16.879,6.76c10.747,5.523,20.355,12.728,29.39,20.462a123.918,123.918,0,0,1,23.307,26.843A119.433,119.433,0,0,0,96.713,42.509,126.927,126.927,0,0,0,83.587,30.663c-9.323-7.2-19.15-13.885-29.858-18.526A86.236,86.236,0,0,0,37.253,6.778,48.628,48.628,0,0,0,20.527,5.8a26.221,26.221,0,0,0-3.911.838c-.65.148-1.245.407-1.88.579-.592.251-1.222.441-1.8.719A17.4,17.4,0,0,0,6.7,12.309C3.2,16.2,1.4,21.956,1.043,27.909Z"/><path class="cls-1" d="M116.1,78.6a23.368,23.368,0,0,1,.949,9.11,22.889,22.889,0,0,1-.936,4.68,21.081,21.081,0,0,1-2.058,4.474,19.59,19.59,0,0,1-7.347,6.807,24.6,24.6,0,0,1-9.433,2.672,52.638,52.638,0,0,1-18.514-1.991,87.76,87.76,0,0,1-16.879-6.76c-10.747-5.523-20.355-12.728-29.39-20.462A123.918,123.918,0,0,1,9.185,50.282,119.433,119.433,0,0,0,20.43,64,126.824,126.824,0,0,0,33.556,75.841c9.323,7.2,19.149,13.885,29.858,18.526A86.236,86.236,0,0,0,79.89,99.726a48.628,48.628,0,0,0,16.726.983,26.1,26.1,0,0,0,3.911-.838c.65-.148,1.245-.407,1.88-.579.592-.251,1.222-.441,1.8-.719a17.4,17.4,0,0,0,6.24-4.378C113.947,90.3,115.741,84.548,116.1,78.6Z"/><path class="cls-1" d="M205.273,29.1l-5.826,7.645q-4.158-4.6-9.315-4.6A9.1,9.1,0,0,0,184.417,34a5.6,5.6,0,0,0-2.338,4.527,4.709,4.709,0,0,0,1.819,3.822,24.544,24.544,0,0,0,6.9,3.34q9.2,3.378,12.432,6.717,4.08,4.194,4.082,11.1,0,8.426-5.567,13.657-5.529,5.2-14.4,5.2-12.21,0-19.7-10.836l7.236-6.976q4.008,7.644,12.024,7.644a9.111,9.111,0,0,0,6.382-2.264,7.5,7.5,0,0,0,2.524-5.789,6.133,6.133,0,0,0-2.078-4.972,17.062,17.062,0,0,0-3.284-1.93q-2.247-1.075-5.734-2.338-7.832-2.82-10.947-6.271a13.185,13.185,0,0,1-3.192-9.2,15.664,15.664,0,0,1,5.084-11.949,18.022,18.022,0,0,1,12.8-4.75A24.728,24.728,0,0,1,205.273,29.1Z"/><path class="cls-1" d="M243.925,43.755H254.39V81.013H243.925V76.152a14.9,14.9,0,0,1-12.172,6.011,17.075,17.075,0,0,1-13.062-5.64,20.167,20.167,0,0,1-5.233-14.213,20.222,20.222,0,0,1,5.2-14.064,16.862,16.862,0,0,1,12.914-5.678,15.734,15.734,0,0,1,12.357,5.974ZM245.038,62.5a10.135,10.135,0,0,0-3.048-7.459,9.9,9.9,0,0,0-7.361-3.081,10.44,10.44,0,0,0-7.4,17.813,10.424,10.424,0,0,0,14.722,0A9.937,9.937,0,0,0,245.038,62.5Z"/><path class="cls-1" d="M263.787,43.755h10.428v4.639a14.212,14.212,0,0,1,11.69-5.826,13.919,13.919,0,0,1,9.945,3.637,10.265,10.265,0,0,1,2.969,4.453,23.616,23.616,0,0,1,.853,6.716V81.013H289.244V60.38a18.572,18.572,0,0,0-.389-4.082,6.908,6.908,0,0,0-1.243-2.783,4.957,4.957,0,0,0-2.208-1.577,9.51,9.51,0,0,0-3.285-.5q-7.9,0-7.9,10.279v19.3H263.787Z"/><path class="cls-1" d="M347.394,59.749V81.013h-11.17v-57.3H352.96q6.458,0,9.8,1.262a15.274,15.274,0,0,1,6.494,4.23A18.039,18.039,0,0,1,373.927,41.9a18.6,18.6,0,0,1-3.711,11.689q-4.787,6.162-15.586,6.16Zm0-9.685h4.564q10.465,0,10.465-8.2,0-4.416-2.672-6.439t-8.5-2.022h-3.859Z"/><path class="cls-1" d="M407.177,43.755h10.465V81.013H407.177V76.152a14.9,14.9,0,0,1-12.172,6.011,17.075,17.075,0,0,1-13.062-5.64A20.167,20.167,0,0,1,376.71,62.31a20.222,20.222,0,0,1,5.2-14.064,16.861,16.861,0,0,1,12.914-5.678,15.734,15.734,0,0,1,12.357,5.974ZM408.29,62.5a10.135,10.135,0,0,0-3.048-7.459,9.9,9.9,0,0,0-7.361-3.081,10.44,10.44,0,0,0-7.4,17.813,10.424,10.424,0,0,0,14.722,0A9.937,9.937,0,0,0,408.29,62.5Z"/><path class="cls-1" d="M437.468,16.591V48.542q5.224-5.973,12.417-5.974a16.721,16.721,0,0,1,12.861,5.678,19.985,19.985,0,0,1,5.226,14.064,20.185,20.185,0,0,1-5.226,14.213,17.09,17.09,0,0,1-13.084,5.64,14.98,14.98,0,0,1-12.194-6.011v4.861H427.04V16.591ZM457.247,62.5a10.142,10.142,0,0,0-3.043-7.459,9.917,9.917,0,0,0-7.384-3.081,10.444,10.444,0,0,0-7.385,17.813,10.1,10.1,0,0,0,7.422,3.043A10.454,10.454,0,0,0,457.247,62.5Z"/><path class="cls-1" d="M485.966,16.591V81.013H475.538V16.591Z"/><path class="cls-1" d="M493.474,62.087a18.235,18.235,0,0,1,6.007-14.027q6.042-5.492,15.349-5.492,9.27,0,15.239,5.529A18.53,18.53,0,0,1,536,62.347a18.63,18.63,0,0,1-5.97,14.324q-5.932,5.493-15.46,5.492-9.419,0-15.276-5.529Q493.473,71.068,493.474,62.087Zm10.724.186a10.572,10.572,0,0,0,17.994,7.5,10.335,10.335,0,0,0,0-14.732,10.19,10.19,0,0,0-7.472-3.081,10.345,10.345,0,0,0-7.4,3.081A9.841,9.841,0,0,0,504.2,62.273Z"/></g></g></svg>